HIERARCHY
ROOT root
{
  OFFSET 134.317 80.632 18.4519
  CHANNELS 6 Xposition Yposition Zposition Zrotation Xrotation Yrotation
  JOINT pelvis
  {
    OFFSET 0 0 0
    CHANNELS 3 Zrotation Xrotation Yrotation
    JOINT lfemur
    {
      OFFSET 13.8754 0 0
      CHANNELS 3 Zrotation Xrotation Yrotation
      JOINT ltibia
      {
        OFFSET 0 -43.0143 0
        CHANNELS 3 Zrotation Xrotation Yrotation
        JOINT lfoot
        {
          OFFSET 0 -43.2745 0
          CHANNELS 3 Zrotation Xrotation Yrotation
          JOINT ltoe
          {
            OFFSET 0 0 14.8061
            CHANNELS 3 Zrotation Xrotation Yrotation
            JOINT ltoe_tip
            {
              OFFSET 0 0 1
              CHANNELS 3 Zrotation Xrotation Yrotation
              End Site
              {
                OFFSET 0 0 0
              }
            }
          }
        }
      }
    }
    JOINT rfemur
    {
      OFFSET -13.8754 0 0
      CHANNELS 3 Zrotation Xrotation Yrotation
      JOINT rtibia
      {
        OFFSET 0 -43.0143 0
        CHANNELS 3 Zrotation Xrotation Yrotation
        JOINT rfoot
        {
          OFFSET 0 -43.2745 0
          CHANNELS 3 Zrotation Xrotation Yrotation
          JOINT rtoe
          {
            OFFSET 0 0 14.8061
            CHANNELS 3 Zrotation Xrotation Yrotation
            JOINT rtoe_tip
            {
              OFFSET 0 0 1
              CHANNELS 3 Zrotation Xrotation Yrotation
              End Site
              {
                OFFSET 0 0 0
              }
            }
          }
        }
      }
    }
    JOINT thorax
    {
      OFFSET 0 5.54725 -1
      CHANNELS 3 Zrotation Xrotation Yrotation
      JOINT neck
      {
        OFFSET 0 46.8089 0
        CHANNELS 3 Zrotation Xrotation Yrotation
        JOINT head
        {
          OFFSET 0 18 0
          CHANNELS 3 Zrotation Xrotation Yrotation
          End Site
          {
            OFFSET 0 0 0
          }
        }
      }
      JOINT lclavicle
      {
        OFFSET 0 42.6801 0
        CHANNELS 3 Zrotation Xrotation Yrotation
        JOINT lhumerus
        {
          OFFSET 16.5077 0 0
          CHANNELS 3 Zrotation Xrotation Yrotation
          JOINT lradius
          {
            OFFSET 0 -27.9653 0
            CHANNELS 3 Zrotation Xrotation Yrotation
            JOINT lwrist
            {
              OFFSET 0 -27.1153 0
              CHANNELS 3 Zrotation Xrotation Yrotation
              JOINT lhand
              {
                OFFSET 0 -10 0
                CHANNELS 3 Zrotation Xrotation Yrotation
                End Site
                {
                  OFFSET 0 0 0
                }
              }
            }
          }
        }
      }
      JOINT rclavicle
      {
        OFFSET 0 42.6801 0
        CHANNELS 3 Zrotation Xrotation Yrotation
        JOINT rhumerus
        {
          OFFSET -16.5077 0 0
          CHANNELS 3 Zrotation Xrotation Yrotation
          JOINT rradius
          {
            OFFSET 0 -27.9653 0
            CHANNELS 3 Zrotation Xrotation Yrotation
            JOINT rwrist
            {
              OFFSET 0 -27.1153 0
              CHANNELS 3 Zrotation Xrotation Yrotation
              JOINT rhand
              {
                OFFSET 0 -10 0
                CHANNELS 3 Zrotation Xrotation Yrotation
                End Site
                {
                  OFFSET 0 0 0
                }
              }
            }
          }
        }
      }
    }
  }
}
MOTION
Frames:	12
Frame Time:	0.0333333
-21.9665 83.0766 44.32 -1.3682 -2.79462 114.393 -1.19271e-015 5.96354e-016 9.54166e-015 16.2994 -5.53094 24.2483 8.43739e-015 41.4853 -1.27371e-014 4.16695 -14.2415 5.07556 6.75868e-015 4.77083e-015 3.18055e-015 -3.97569e-016 3.18055e-015 1.27222e-014 -5.01671 -44.9364 -0.751636 2.49341e-014 50.4254 -1.99695e-014 -5.15319 14.7266 -3.68914 -3.18055e-015 -1.59028e-015 1.59028e-015 3.18055e-015 -3.97569e-015 1.59028e-015 2.76453 19.4388 -6.01189 -6.23653 -19.8762 -15.6742 -1.59028e-015 2.08724e-015 -7.95139e-016 -8.41944 -2.38542e-015 -7.29738 29.389 7.465 -21.423 5.81877e-007 -33.6854 -18.9207 -1.13266 -6.0905 -1.27944e-014 -4.72114e-016 -8.82107e-016 -9.54166e-015 9.32505 -2.83268e-015 9.06005 -25.347 10.905 19.58 -4.51084e-007 -46.9698 8.69167 -7.22138 -13.5113 -6.54217e-015 -6.36111e-015 -4.77083e-015 -9.54166e-015 
-20.4287 82.9352 45.1136 -1.85431 -2.81243 113.783 3.97569e-016 -3.97569e-016 -3.18055e-015 17.4713 -5.17766 24.7141 1.27657e-015 42.0305 -4.28191e-015 2.90156 -12.7496 3.47429 -4.77083e-015 9.54166e-015 -3.18055e-015 -1.19271e-015 2.38542e-015 -3.18055e-015 -3.79347 -45.8347 -0.121674 1.9544e-014 52.1357 -2.07272e-014 -5.2961 13.5671 -3.92308 -3.18055e-015 3.97569e-015 -3.18055e-015 1.05934e-030 9.54166e-015 -6.36111e-015 2.363 19.0659 -6.2947 -6.41683 -20.0537 -14.6859 -3.18055e-015 -3.97569e-015 -7.95139e-016 -8.69474 9.54166e-015 -7.57875 28.739 7.211 -21.208 3.29171e-007 -32.4566 -20.2 -1.59572 -5.92884 -3.19766e-015 1.19271e-015 8.94531e-016 3.18055e-015 8.80341 2.84511e-015 8.79354 -24.899 9.57958 21.508 -5.23317e-007 -47.2207 8.74058 -8.0737 -14.86 -0 1.76556e-031 -3.18055e-015 3.18055e-015 
-19.1203 82.8579 45.838 -2.21937 -2.38693 112.801 -0 0 3.18055e-015 18.5333 -4.9137 24.5928 1.07891e-014 43.4135 -8.75688e-015 0.636297 -10.3922 0.740679 -7.95139e-016 4.77083e-015 -0 -7.95139e-016 4.77083e-015 -0 -2.57287 -46.4502 1.12145 4.27772e-014 53.47 -3.7403e-014 -5.2447 13.1712 -3.92852 3.18055e-015 -4.77083e-015 1.59028e-015 6.36111e-015 -7.95139e-016 1.59028e-015 1.4633 19.0636 -6.27025 -6.32077 -20.26 -13.8178 1.59028e-015 -3.8763e-015 -0 -8.8155 -3.97569e-015 -7.61811 28.304 6.876 -21.525 -1.49693e-006 -31.9965 -21.5674 0.257514 -5.9757 3.19793e-015 -5.96354e-016 0 -6.36111e-015 8.2528 2.55935e-015 8.70586 -24.378 8.47884 22.715 1.06494e-007 -47.5944 8.84248 -8.53694 -15.9403 9.92323e-015 7.95139e-015 6.36111e-015 9.54166e-015 
-17.9557 82.8121 46.4365 -2.40902 -1.98697 112.349 -5.51738e-032 -9.93923e-016 -3.18055e-015 19.7006 -5.44185 23.296 4.77083e-015 45.8494 -0 -2.25885 -7.59055 -2.53929 -1.59028e-015 1.59028e-015 -9.54166e-015 -3.18055e-015 0 -6.36111e-015 -1.80214 -46.7314 1.85561 5.05821e-015 54.6482 5.49703e-015 -5.31542 12.6132 -4.04428 -3.18055e-015 -5.56597e-015 -3.18055e-015 -3.18055e-015 -1.03368e-014 -3.18055e-015 0.770654 19.1466 -6.78549 -6.07625 -20.496 -12.846 -1.59028e-015 -4.96962e-016 1.59028e-015 -8.77858 2.38542e-015 -7.8062 27.611 6.503 -20.665 6.28158e-007 -31.2779 -23.5932 3.48233 -5.46566 -0 9.93923e-017 7.95139e-016 -0 8.07348 7.90169e-015 8.62457 -24.309 7.71486 23.674 8.8228e-008 -48.0952 8.78148 -8.82638 -16.8616 -0 4.77083e-015 -9.54166e-015 6.36111e-015 
-16.9834 82.7936 46.8708 -2.43802 -1.4512 111.889 1.98785e-016 -6.95746e-016 -3.18055e-015 20.2748 -5.90375 21.6892 5.44272e-015 47.8717 -9.48297e-015 -4.04852 -5.7287 -4.44305 -4.77083e-015 3.18055e-015 3.18055e-015 -1.59028e-015 -1.59028e-015 3.18055e-015 -1.43164 -46.6486 2.14336 -7.63484e-015 55.4121 1.12056e-014 -5.18496 12.1691 -3.99225 0 9.54166e-015 -0 -3.18055e-015 4.77083e-015 -0 -0.00451398 19.2374 -7.29103 -5.72815 -20.2276 -11.5949 0 9.93923e-016 -0 -8.81798 7.95139e-015 -7.92622 27.386 6.178 -19.876 1.20218e-007 -30.8854 -24.9693 5.39454 -5.16978 -3.19355e-015 1.98785e-015 -1.39149e-015 -0 8.01617 -4.89507e-015 8.48137 -24.408 7.09756 24.575 6.02316e-008 -48.5032 8.68601 -9.44533 -16.8221 -3.32274e-015 3.18055e-015 0 3.18055e-015 
-16.1295 82.7889 47.0885 -2.22075 -1.19028 110.893 -0 0 6.36111e-015 20.6686 -5.4302 20.8172 1.43125e-014 48.4622 -0 -2.5496 -5.52469 -2.78586 -6.36111e-015 1.11319e-014 3.18055e-015 1.11319e-014 -6.36111e-015 -0 -0.712625 -46.3474 2.52213 4.54152e-014 55.8167 -4.52875e-014 -4.60805 11.9843 -3.5626 1.32417e-031 4.77083e-015 -1.59028e-015 3.97252e-031 7.15625e-015 -3.18055e-015 -0.5768 19.1996 -7.40471 -5.25952 -19.696 -10.332 1.59028e-015 5.36719e-015 7.95139e-016 -8.84471 6.36111e-015 -7.95013 27.193 6.063 -19.111 2.69229e-007 -30.4069 -25.9746 7.00596 -4.85718 9.57605e-015 2.78299e-015 1.98785e-015 -0 8.31701 6.41081e-015 8.34227 -24.913 6.77214 25.365 -6.2572e-008 -48.9704 8.56137 -8.86206 -17.0788 6.65456e-015 3.18055e-015 -3.18055e-015 -3.18055e-015 
-15.4673 82.8169 47.08 -1.8655 -0.794062 109.441 -1.98785e-016 1.98785e-016 -6.36111e-015 20.3765 -3.62146 21.039 5.78147e-015 46.4777 -2.77117e-014 3.5833 -5.50462 3.91786 1.59028e-015 -6.36111e-015 6.36111e-015 -7.95139e-016 4.77083e-015 -0 -0.135927 -45.8986 3.07468 4.26892e-014 56.1123 -3.99304e-014 -3.78022 11.6112 -2.9486 0 1.27222e-014 -0 -1.59028e-015 4.77083e-015 -0 -1.30904 19.2023 -7.42792 -4.73534 -19.1825 -8.59204 -1.59028e-015 -6.95746e-015 -7.95139e-016 -8.94229 -7.95139e-016 -7.83165 27.481 6.467 -18.616 -1.32089e-006 -30.6562 -24.3284 5.71323 -5.98084 6.39592e-015 -7.95139e-016 1.59028e-015 6.36111e-015 8.68387 -6.49777e-015 7.96716 -25.523 6.28192 26.608 -1.72904e-007 -49.319 8.53942 -8.97269 -17.1233 -1.66404e-014 -1.59028e-015 3.18055e-015 3.18055e-015 
-14.9181 82.817 46.8813 -1.46886 -0.71127 107.774 1.37935e-033 -2.48481e-017 3.18055e-015 19.7274 -0.807854 21.3563 4.42118e-015 41.6712 -4.25793e-015 7.29837 -5.10482 7.98139 1.25234e-014 -3.08116e-015 -3.18055e-015 8.24956e-015 -6.85807e-015 -6.36111e-015 0.711128 -45.4639 3.84651 2.22093e-014 56.2089 -1.71561e-014 -2.96973 11.2334 -2.33754 2.20695e-032 3.97569e-016 -3.18055e-015 3.18055e-015 2.38542e-015 3.18055e-015 -1.77056 18.8923 -7.63079 -4.05227 -18.5587 -6.60392 1.59028e-015 -1.98785e-016 -0 -9.06433 -3.18055e-015 -7.63118 27.519 7.141 -18.242 6.61583e-007 -30.2997 -24.2115 4.24634 -5.66948 -6.39238e-015 8.94531e-016 2.48481e-016 -0 9.14713 -1.07344e-014 7.75787 -25.822 6.20982 26.926 -1.53698e-007 -49.7758 8.42753 -8.89311 -16.3577 -3.31473e-015 -1.59028e-015 -9.54166e-015 -6.36111e-015 
-14.5303 82.7838 46.4648 -0.819497 -0.948558 106.301 1.98785e-016 1.49089e-016 3.18055e-015 18.6543 2.55291 20.8857 5.76057e-015 34.5597 3.86207e-015 7.49176 -4.62106 8.13852 2.98177e-015 -1.78906e-015 -1.27222e-014 -3.37934e-015 -9.93923e-016 -6.36111e-015 1.75489 -44.8396 4.84379 1.11233e-014 56.286 -1.14605e-014 -2.35465 11.1155 -1.85814 -4.41391e-032 1.59028e-015 1.59028e-015 6.62086e-032 -1.19271e-015 3.18055e-015 -1.70404 18.6153 -8.30549 -3.23438 -17.6483 -4.33902 -2.20695e-032 -1.59028e-015 -7.95139e-016 -9.14159 1.19271e-015 -7.32166 27.679 8.258 -18.99 1.0379e-006 -30.5749 -23.6905 2.79657 -5.70448 3.19638e-015 -1.78906e-015 -2.38542e-015 3.18055e-015 9.49651 1.11816e-015 7.44295 -25.782 6.31933 26.734 3.5926e-007 -50.3354 8.24544 -8.78484 -15.8172 9.91717e-015 -1.59028e-015 1.11319e-014 3.18055e-015 
-14.3205 82.619 45.9055 -0.204211 -1.31697 105.203 -0 -8.94531e-016 -0 17.9558 5.44635 22.369 7.91709e-015 30.8728 -1.8528e-014 11.0257 -3.39989 11.8769 2.78299e-015 -7.95139e-015 -3.18055e-015 7.95139e-016 -3.97569e-015 -3.18055e-015 2.24521 -44.4093 5.02015 3.43728e-014 56.4923 -3.16875e-014 -1.56452 10.9747 -1.23853 1.59028e-015 -1.59028e-015 -4.77083e-015 1.59028e-015 -3.97569e-015 1.59028e-015 -1.40694 18.3148 -9.2578 -2.40344 -16.8603 -2.28385 -0 -3.97569e-016 -0 -8.88273 1.21259e-014 -7.07437 27.336 9.267 -19.354 9.34809e-007 -31.1094 -23.479 0.78769 -6.39033 9.60132e-015 7.95139e-016 1.19271e-015 6.36111e-015 10.0974 -1.50579e-014 6.94406 -26.009 6.8662 26.308 2.05747e-007 -51.8181 7.80474 -8.36615 -15.0201 6.58612e-015 3.18055e-015 1.11319e-014 -0 
-14.4455 82.3732 45.2336 0.141403 -1.49807 104.303 1.98785e-016 -1.04362e-015 -0 16.9579 7.6892 24.1767 -2.90094e-015 28.5443 -7.24131e-015 12.104 -3.81123 13.1711 1.19271e-015 5.56597e-015 -1.27222e-014 -3.18055e-015 0 -0 2.20773 -44.4527 4.98836 4.58488e-014 56.7532 -3.77086e-014 -0.348485 11.3832 -0.272855 3.18055e-015 3.18055e-015 3.18055e-015 1.59028e-015 7.15625e-015 -1.59028e-015 -1.29195 18.0291 -10.0308 -1.5472 -16.0447 -0.523708 1.59028e-015 3.27995e-015 7.95139e-016 -8.57175 1.0138e-014 -6.81139 26.937 9.741 -20.341 2.60093e-007 -31.585 -25.1945 -0.560125 -6.19508 3.19924e-015 -2.38542e-015 0 -3.18055e-015 11.1163 -1.82385e-014 6.3776 -26.714 7.59058 25.703 7.57094e-008 -53.6923 7.31959 -7.89109 -14.7576 -0 -1.59028e-015 3.18055e-015 3.18055e-015 
-14.828 82.2098 44.5794 0.0720888 -1.21966 104.423 -1.10348e-032 3.97569e-016 1.59028e-015 16.5045 7.55077 23.1874 -1.59028e-015 28.9537 -0 10.827 -5.25837 11.9812 -3.57812e-015 0 3.18055e-015 -5.56597e-015 -2.38542e-015 -3.18055e-015 0.195658 -44.9503 2.62512 6.52532e-015 57.1989 -5.87117e-015 1.03605 11.7331 0.803855 -4.77083e-015 -3.57812e-015 -0 3.18055e-015 -8.74653e-015 -4.77083e-015 -1.59743 17.8137 -11.2787 -0.702723 -15.5543 0.562762 -7.95139e-016 -1.78906e-015 -2.38542e-015 -8.21485 -2.98177e-016 -6.29909 26.76 9.41 -21.32 -2.58276e-007 -32.0844 -26.5189 -1.80857 -7.01605 6.4091e-015 7.95139e-016 7.95139e-016 3.18055e-015 13.0377 -1.53064e-014 5.69302 -28.364 8.52286 25.497 -5.66111e-007 -56.0952 6.74908 -7.58023 -14.874 3.29082e-015 4.77083e-015 4.77083e-015 6.36111e-015 
